<svg width="1728" height="729" viewBox="0 0 1728 729" fill="none" xmlns="http://www.w3.org/2000/svg">
<path d="M-74.4745 138.656C-68.9249 -5.05213 121.436 -51.5837 192.654 73.359L245.697 166.416C277.313 221.883 341.868 249.672 403.887 234.512L530.756 203.501C660.974 171.67 759.479 320.403 679.36 427.877L573.977 569.244C540.013 614.805 536.25 676.154 564.392 725.525L644.219 865.57C713.772 987.593 584.116 1126.29 457.69 1065.1L377.842 1026.46C316.119 996.589 241.881 1014.74 200.898 1069.71L147.881 1140.83C63.9356 1253.44 -115.082 1190.2 -109.662 1049.85L-103.442 888.769C-101.249 831.983 -132.889 779.288 -184.041 754.532L-342.755 677.722C-463.418 619.326 -444.633 441.923 -314.416 410.093L-187.546 379.081C-125.528 363.921 -81.0716 309.486 -78.6079 245.689L-74.4745 138.656Z" fill="#FFFDEE"/>
<path d="M1428.29 2255.39C1433.84 2111.69 1624.2 2065.15 1695.42 2190.1L1748.46 2283.15C1780.07 2338.62 1844.63 2366.41 1906.65 2351.25L2033.52 2320.24C2163.73 2288.41 2262.24 2437.14 2182.12 2544.62L2076.74 2685.98C2042.77 2731.54 2039.01 2792.89 2067.15 2842.26L2146.98 2982.31C2216.53 3104.33 2086.88 3243.03 1960.45 3181.84L1880.6 3143.2C1818.88 3113.33 1744.64 3131.47 1703.66 3186.45L1650.64 3257.57C1566.7 3370.18 1387.68 3306.94 1393.1 3166.59L1399.32 3005.51C1401.51 2948.72 1369.87 2896.03 1318.72 2871.27L1160.01 2794.46C1039.34 2736.06 1058.13 2558.66 1188.35 2526.83L1315.22 2495.82C1377.23 2480.66 1421.69 2426.22 1424.15 2362.43L1428.29 2255.39Z" fill="#FFFDEE"/>
</svg>
