<svg width="1728" height="349" viewBox="0 0 1728 349" fill="none" xmlns="http://www.w3.org/2000/svg">
<path d="M-41.4812 138.56C-35.9316 -5.14783 154.429 -51.6794 225.647 73.2633L278.69 166.321C310.307 221.788 374.861 249.576 436.88 234.416L563.749 203.405C693.967 171.575 792.472 320.307 712.354 427.782L606.971 569.148C573.006 614.709 569.244 676.058 597.385 725.429L677.212 865.475C746.766 987.498 617.109 1126.19 490.683 1065.01L410.835 1026.36C349.112 996.493 274.874 1014.64 233.891 1069.62L180.874 1140.74C96.9289 1253.34 -82.0891 1190.1 -76.6691 1049.75L-70.4487 888.673C-68.2558 831.888 -99.8954 779.192 -151.048 754.437L-309.761 677.626C-430.425 619.23 -411.64 441.827 -281.422 409.997L-154.553 378.985C-92.5343 363.826 -48.0783 309.391 -45.6146 245.593L-41.4812 138.56Z" fill="#FFFDEE"/>
<path d="M1461.28 2255.3C1466.83 2111.59 1657.19 2065.06 1728.41 2190L1781.45 2283.06C1813.07 2338.53 1877.62 2366.31 1939.64 2351.16L2066.51 2320.14C2196.73 2288.31 2295.23 2437.05 2215.11 2544.52L2109.73 2685.89C2075.77 2731.45 2072 2792.8 2100.15 2842.17L2179.97 2982.21C2249.53 3104.24 2119.87 3242.93 1993.44 3181.75L1913.6 3143.1C1851.87 3113.23 1777.64 3131.38 1736.65 3186.35L1683.64 3257.47C1599.69 3370.08 1420.67 3306.84 1426.09 3166.49L1432.31 3005.41C1434.51 2948.63 1402.87 2895.93 1351.71 2871.18L1193 2794.36C1072.34 2735.97 1091.12 2558.57 1221.34 2526.74L1348.21 2495.72C1410.23 2480.56 1454.68 2426.13 1457.15 2362.33L1461.28 2255.3Z" fill="#FFFDEE"/>
</svg>
